<svg version="1.1" id="Layer_1" xmlns="http://www.w3.org/2000/svg" xmlns:xlink="http://www.w3.org/1999/xlink" x="0px" y="0px"
	 width="100%" viewBox="0 0 512 512" enable-background="new 0 0 512 512" xml:space="preserve">
<path fill="#DD2E44" opacity="1.000000" stroke="none" 
	d="
M225.000000,0.999996 
	C246.020889,1.000000 267.041779,1.000000 288.345886,1.400336 
	C289.302734,2.190861 289.942078,2.834818 290.655365,2.931076 
	C296.338654,3.698065 302.138794,3.897324 307.712036,5.132768 
	C339.666534,12.216285 370.367462,22.638130 397.232880,41.936813 
	C410.003143,51.110271 421.991974,61.371513 434.020050,71.393250 
	C431.929901,72.023918 430.171265,72.593208 428.376556,72.750130 
	C398.500824,75.362305 373.989380,99.604736 371.059784,129.498215 
	C368.133850,159.354309 385.518951,186.427612 414.333984,196.887650 
	C440.909973,206.534912 471.610535,195.963837 487.983337,171.472687 
	C490.373077,167.898056 492.531616,164.168900 495.100220,160.776794 
	C502.757599,181.561661 509.255432,202.290161 511.095459,224.188034 
	C511.150330,224.840775 512.339600,225.398163 513.000000,226.000000 
	C513.000000,241.354233 513.000000,256.708466 512.655762,272.295654 
	C511.875580,273.183533 511.234314,273.781494 511.034454,274.501953 
	C508.087402,285.125458 501.754089,293.910553 493.982300,301.093323 
	C484.367004,309.979950 472.236206,314.799347 458.994263,314.906311 
	C421.002655,315.213165 383.007568,315.089813 344.641602,314.927551 
	C342.664093,314.451324 341.059052,313.949799 339.453613,313.948608 
	C284.540680,313.907898 229.627716,313.902252 174.714844,313.966187 
	C172.815002,313.968414 170.916061,314.733704 168.549637,315.083374 
	C130.512512,315.014771 92.941429,315.152802 55.373108,314.892303 
	C46.212200,314.828766 37.329250,312.645416 29.258553,307.777313 
	C16.367155,300.001404 7.979495,288.755920 2.969059,274.742249 
	C2.710553,274.019257 1.674205,273.574371 1.000002,273.000000 
	C1.000000,257.312439 1.000000,241.624878 1.408536,225.629425 
	C2.146472,224.970093 2.704855,224.657288 2.771590,224.261566 
	C4.213623,215.710587 4.842397,206.937958 7.166715,198.639023 
	C11.193617,184.261032 16.264177,170.175339 21.004009,156.344055 
	C21.592594,158.660034 22.216131,160.575958 22.535028,162.541306 
	C30.649569,212.550461 79.167809,245.315887 128.780014,235.178513 
	C168.309677,227.101349 197.989578,192.761169 200.135605,152.080521 
	C202.505432,107.157852 171.053848,66.902802 126.677650,59.375191 
	C116.045326,57.571609 104.869438,58.972412 94.085960,58.596970 
	C108.254532,45.858253 123.891876,35.707954 140.566391,27.365290 
	C166.445282,14.417459 193.861618,6.199438 222.693542,2.920078 
	C223.524414,2.825576 224.233902,1.664015 225.000000,0.999996 
M265.911011,179.396393 
	C243.960358,198.282837 236.761185,228.621887 248.155930,254.220627 
	C260.007629,280.845917 286.918701,295.792023 316.026581,291.915222 
	C357.878815,286.341064 382.899170,239.997543 364.947479,201.802917 
	C347.173645,163.986816 298.932617,152.909424 265.911011,179.396393 
M259.588135,105.955551 
	C281.784485,121.890961 310.427216,115.620415 323.139008,91.621033 
	C331.528015,75.782944 329.503754,60.290936 318.968536,46.131603 
	C308.965759,32.687870 290.888519,26.623110 275.353180,30.880856 
	C258.816101,35.413151 247.992584,46.002464 244.177887,62.654533 
	C240.269867,79.713989 245.619736,94.151070 259.588135,105.955551 
z"/>
<path fill="#99AAB5" opacity="1.000000" stroke="none" 
	d="
M169.016693,315.143311 
	C170.916061,314.733704 172.815002,313.968414 174.714844,313.966187 
	C229.627716,313.902252 284.540680,313.907898 339.453613,313.948608 
	C341.059052,313.949799 342.664093,314.451324 344.651215,315.332733 
	C345.351532,317.023315 345.779480,318.081604 345.971436,319.181091 
	C347.904907,330.255432 349.473694,341.404572 351.768829,352.402496 
	C357.750092,381.063721 368.445923,408.299774 377.476959,436.040253 
	C380.528107,445.412354 383.912384,454.793762 385.620331,464.440735 
	C386.629089,470.138824 385.049805,476.441254 383.926849,482.337128 
	C382.139130,491.723114 377.386200,499.475983 368.689117,503.961639 
	C363.277588,506.752716 357.407562,508.648071 351.789978,511.054413 
	C351.051056,511.370911 350.589813,512.335571 350.000000,513.000000 
	C288.312439,513.000000 226.624878,513.000000 164.823761,512.708313 
	C161.575012,511.271484 158.463181,510.056854 155.300461,508.993561 
	C143.119186,504.898132 134.015320,497.429138 130.497925,484.750031 
	C126.921036,471.856415 128.642349,459.072540 132.808258,446.506165 
	C140.310669,423.875153 148.085434,401.324219 155.019424,378.518799 
	C159.079010,365.167114 161.889282,351.423157 164.956253,337.786987 
	C166.637329,330.312775 167.683975,322.695862 169.016693,315.143311 
z"/>
<path fill="#000000" opacity="1.000000" stroke="none" 
	d="
M350.468628,513.000000 
	C350.589813,512.335571 351.051056,511.370911 351.789978,511.054413 
	C357.407562,508.648071 363.277588,506.752716 368.689117,503.961639 
	C377.386200,499.475983 382.139130,491.723114 383.926849,482.337128 
	C385.049805,476.441254 386.629089,470.138824 385.620331,464.440735 
	C383.912384,454.793762 380.528107,445.412354 377.476959,436.040253 
	C368.445923,408.299774 357.750092,381.063721 351.768829,352.402496 
	C349.473694,341.404572 347.904907,330.255432 345.971436,319.181091 
	C345.779480,318.081604 345.351532,317.023315 345.023499,315.540771 
	C383.007568,315.089813 421.002655,315.213165 458.994263,314.906311 
	C472.236206,314.799347 484.367004,309.979950 493.982300,301.093323 
	C501.754089,293.910553 508.087402,285.125458 511.034454,274.501953 
	C511.234314,273.781494 511.875580,273.183533 512.655762,272.764282 
	C513.000000,352.913086 513.000000,432.826172 513.000000,513.000000 
	C458.979370,513.000000 404.958344,513.000000 350.468628,513.000000 
z"/>
<path fill="#000000" opacity="1.000000" stroke="none" 
	d="
M168.549637,315.083374 
	C167.683975,322.695862 166.637329,330.312775 164.956253,337.786987 
	C161.889282,351.423157 159.079010,365.167114 155.019424,378.518799 
	C148.085434,401.324219 140.310669,423.875153 132.808258,446.506165 
	C128.642349,459.072540 126.921036,471.856415 130.497925,484.750031 
	C134.015320,497.429138 143.119186,504.898132 155.300461,508.993561 
	C158.463181,510.056854 161.575012,511.271484 164.355103,512.708313 
	C109.725700,513.000000 55.451397,513.000000 1.000000,513.000000 
	C1.000000,433.312531 1.000000,353.624908 1.000002,273.468658 
	C1.674205,273.574371 2.710553,274.019257 2.969059,274.742249 
	C7.979495,288.755920 16.367155,300.001404 29.258553,307.777313 
	C37.329250,312.645416 46.212200,314.828766 55.373108,314.892303 
	C92.941429,315.152802 130.512512,315.014771 168.549637,315.083374 
z"/>
<path fill="#000000" opacity="1.000000" stroke="none" 
	d="
M434.334778,71.139992 
	C421.991974,61.371513 410.003143,51.110271 397.232880,41.936813 
	C370.367462,22.638130 339.666534,12.216285 307.712036,5.132768 
	C302.138794,3.897324 296.338654,3.698065 290.655365,2.931076 
	C289.942078,2.834818 289.302734,2.190861 288.814575,1.400336 
	C363.593842,1.000000 438.187714,1.000000 513.000000,1.000000 
	C513.000000,75.687416 513.000000,150.375046 513.000000,225.531342 
	C512.339600,225.398163 511.150330,224.840775 511.095459,224.188034 
	C509.255432,202.290161 502.757599,181.561661 495.130005,160.443100 
	C487.233490,141.198227 478.288116,123.243095 465.678864,107.422180 
	C456.106293,95.411446 446.003632,83.823204 436.025574,71.726059 
	C435.499084,71.328224 435.083832,71.251312 434.586151,71.155830 
	C434.503723,71.137260 434.334778,71.139999 434.334778,71.139992 
z"/>
<path fill="#000000" opacity="1.000000" stroke="none" 
	d="
M224.531342,0.999996 
	C224.233902,1.664015 223.524414,2.825576 222.693542,2.920078 
	C193.861618,6.199438 166.445282,14.417459 140.566391,27.365290 
	C123.891876,35.707954 108.254532,45.858253 93.770241,58.738251 
	C83.451187,67.195656 73.922417,75.320328 65.712875,85.335999 
	C54.276199,99.288773 42.874512,113.186409 33.904919,128.825958 
	C28.927317,137.505005 25.192171,146.896606 20.897015,155.967041 
	C16.264177,170.175339 11.193617,184.261032 7.166715,198.639023 
	C4.842397,206.937958 4.213623,215.710587 2.771590,224.261566 
	C2.704855,224.657288 2.146472,224.970093 1.408536,225.160767 
	C1.000000,150.406296 1.000000,75.812576 1.000000,1.000000 
	C75.354088,1.000000 149.708389,1.000000 224.531342,0.999996 
z"/>
<path fill="#F4AAB9" opacity="1.000000" stroke="none" 
	d="
M21.004013,156.344055 
	C25.192171,146.896606 28.927317,137.505005 33.904919,128.825958 
	C42.874512,113.186409 54.276199,99.288773 65.712875,85.335999 
	C73.922417,75.320328 83.451187,67.195656 93.627823,59.040756 
	C104.869438,58.972412 116.045326,57.571609 126.677650,59.375191 
	C171.053848,66.902802 202.505432,107.157852 200.135605,152.080521 
	C197.989578,192.761169 168.309677,227.101349 128.780014,235.178513 
	C79.167809,245.315887 30.649569,212.550461 22.535028,162.541306 
	C22.216131,160.575958 21.592594,158.660034 21.004013,156.344055 
z"/>
<path fill="#F4AAB9" opacity="1.000000" stroke="none" 
	d="
M266.185364,179.165802 
	C298.932617,152.909424 347.173645,163.986816 364.947479,201.802917 
	C382.899170,239.997543 357.878815,286.341064 316.026581,291.915222 
	C286.918701,295.792023 260.007629,280.845917 248.155930,254.220627 
	C236.761185,228.621887 243.960358,198.282837 266.185364,179.165802 
z"/>
<path fill="#F4AAB9" opacity="1.000000" stroke="none" 
	d="
M434.020050,71.393250 
	C434.334778,71.139999 434.503723,71.137260 434.785522,71.372299 
	C435.423828,71.753891 435.780334,71.900444 436.136841,72.046982 
	C446.003632,83.823204 456.106293,95.411446 465.678864,107.422180 
	C478.288116,123.243095 487.233490,141.198227 494.826904,160.177536 
	C492.531616,164.168900 490.373077,167.898056 487.983337,171.472687 
	C471.610535,195.963837 440.909973,206.534912 414.333984,196.887650 
	C385.518951,186.427612 368.133850,159.354309 371.059784,129.498215 
	C373.989380,99.604736 398.500824,75.362305 428.376556,72.750130 
	C430.171265,72.593208 431.929901,72.023918 434.020050,71.393250 
z"/>
<path fill="#F4AAB9" opacity="1.000000" stroke="none" 
	d="
M259.307922,105.730194 
	C245.619736,94.151070 240.269867,79.713989 244.177887,62.654533 
	C247.992584,46.002464 258.816101,35.413151 275.353180,30.880856 
	C290.888519,26.623110 308.965759,32.687870 318.968536,46.131603 
	C329.503754,60.290936 331.528015,75.782944 323.139008,91.621033 
	C310.427216,115.620415 281.784485,121.890961 259.307922,105.730194 
z"/>
<path fill="#DD2E44" opacity="1.000000" stroke="none" 
	d="
M436.025574,71.726059 
	C435.780334,71.900444 435.423828,71.753891 434.867981,71.390869 
	C435.083832,71.251312 435.499084,71.328224 436.025574,71.726059 
z"/>
</svg>